<svg xmlns="http://www.w3.org/2000/svg" viewBox="83 246 211.294 34">
  <defs>
    <style>
      .cls-1 {
        fill: #fff;
        fill-rule: evenodd;
      }
    </style>
  </defs>
  <path id="logo_bancodechile" class="cls-1" d="M445.788,1669h1.578a34.773,34.773,0,0,1,4.906,1.066h.64a1.562,1.562,0,0,0,.811-.341.644.644,0,0,1,.341.171l-6.484,4.607s-1.962.981-1.962,1.877v11.561l-6.4,4.437c.085-.6.9-1.195.9-2.048v-11.39c0-.9,6.143-4.1,6.143-4.992s-3.626-1.621-3.626-1.621c-1.152-.043-1.621-.043-2.773,0s-2.432.767-2.858.725c1.408-.939,5.162-4.01,8.788-4.01Zm13.139.255h0c.981,0,1.578,1.067,3.285,3.285.427.555,2.389,2.943,2.389,4.1v.9c0,2.347-6.143,4.693-6.143,5.674,0,.682,3.242.341,4.693,1.322a5.228,5.228,0,0,1,1.962,3.925v2.773c0,1.664-2.3,2.3-5.076,4.437a52.182,52.182,0,0,1-5.759,3.754s-4.821-2.645-7.124-2.645h-3.114c-1.323,0-4.522,1.151-4.735,1.151,0,0,4.863-4.735,9.769-4.735h3.285a22.311,22.311,0,0,1,3.626,1.152v-20.818a.649.649,0,0,0-.64-.555c-.9,0-1.578,1.663-1.578,1.706v12.372c0,.555-2.133,2.218-3.285,2.859-1.706.981-2.815,1.962-3.839,2.474v-.256s.9-.981.9-1.578V1677.1c0-.17,1.45-1.962,5.418-4.265,2.3-1.323,4.65-3.626,6.058-3.626Zm-1.877,5.674h0s2.645,2.858,2.645,4.607c0,1.322-1.024,1.834-2.645,2.773Zm0,9.684h0c.256.085,1.706.938,1.706,1.578v9.428c-.427.17-.085,0-.341,0-.512,0-1.408-.426-1.408-.9v-10.068Zm62.625-3.541h0l5.8,2.859v12.627l-5.5,2.688-5.887-2.56V1683.5l5.588-2.474Zm-26.876-.384h0l3.541,3.541v10.836l1.621,1.621-2.687,2.645-2.858-2.688v-10.067a16.286,16.286,0,0,0-2.133-1.878l-1.962,1.792v8.7l1.493,1.493-2.773,2.688-2.56-2.474v-10.921a21.547,21.547,0,0,1-1.706-1.621l3.455-3.541,3.37,3.2,3.285-3.285Zm13.523.469h0l6.4,2.688a10.747,10.747,0,0,1-2.943,1.962s-5.2-2.048-5.333-2.048v10.666l4.394,2.175a20.952,20.952,0,0,1,3.157-.853.888.888,0,0,0,.341,0V1696l-4.991,3.285h-.64l-6.314-2.858v-12.372l5.973-2.857Zm-32.293-.3h0c3.967,2.005,5.759,2.219,5.759,3.115v10.494l2.56,2.56-2.389,2.3c-1.749-1.408-2.389-2.047-2.389-2.047l-4.351,2.175-5.972-2.73v-6.911l5.8-2.858,3.2,1.323v-2.858l-5.119-1.791-2.56.3-.128-.427Zm43.9,2.688h0l3.8,1.792v11.219l-3.839-1.706Zm-47.1,5.759h0l5.418,2.73v5.076l-5.418-2.517Zm74.7-15.869h0a14.481,14.481,0,0,1,3.114,1.322c.981.469,2.688.853,2.688,1.706v20.349l-5.418,2.559-5.972-2.858v-12.883l5.759-2.56c.213.043,2.048.725,2.048.725v-4.1l-4.778-2.047c-.768.043-1.707.81-2.645.938l.213-.811s4.309-2.389,4.991-2.389Zm15.187,7.551h0l5.332,5.887-7.807,5.759v1.578c0,.341,4.607,2.432,4.607,2.432s2.261-1.536,3.285-.938c-.043.085-5.5,3.626-5.5,3.626l-5.8-2.559V1683.8l5.887-2.772Zm-16.979,2.56h0l3.925,1.792v11.219h-.085l-3.839-1.706Zm14.59.255h0l3.925,4.1-3.925,2.858Zm73.972,11.434h0l1.493,1.407-2.943,2.774-2.773-2.774v-18.855l4.266-4.181v21.629Zm-22.7-22.184h0v11.9l4.266-4.18,3.2,3.2v15.1l-4.01,3.925h-.085v-16.979l-1.578-1.493-1.792,1.579v8.958l1.578,1.493v.085l-2.858,2.858-2.773-2.772v-19.5l4.1-4.01v-.086Zm12.2,0h.086l2.773,2.773v.085l-2.858,2.858-2.858-2.858Zm20.178,8.149h0c.171,0,5.333,5.673,5.418,5.886l-7.807,5.5v2.218l4.394,2a7.882,7.882,0,0,0,3.114-1.024l1.194.3c-.085.127-5.418,3.412-6.356,3.412a30.628,30.628,0,0,1-5.8-2.645v-12.542c0-.555,5.8-3.114,5.8-3.114Zm-20.093-.427h.085l2.56,2.559v11.646l1.578,1.493-2.943,2.858-2.773-2.773v-11.646l-1.323-1.237,2.858-2.859Zm17.789,3.242h0l3.754,3.839-3.711,2.389Zm-45.945-13.054h.341c-.256.683-4.693,2.815-6.4,4.736-2.645,3.029-4.394,4.693-4.1,9.385.171,2.73,2.346,6.783,4.821,8.233a13.517,13.517,0,0,0,5.5,1.878c3.328.127,2-.513,2.474-.256V1675.1c0-.256-.6-1.536-1.152-1.536-.171,0-.427.3-.427.512v13.693c0,.512-.469,1.238-2.773,2.773-2.389,1.578-3.114,2.09-3.37,2.047a4.573,4.573,0,0,1,.555-.811v-14.249c0-1.407,2.048-2.218,3.839-3.626a16.33,16.33,0,0,1,4.607-2.773h.725c1.962,0,3.2,2.389,3.455,2.645a2.32,2.32,0,0,1,.725.427h1.152c.341,0,1.152-.511,1.621-.427a53.232,53.232,0,0,1-5.674,3.84h-.64c-.3,0-.768-.469-1.322-.725v17.875a.888.888,0,0,0,.341,0c.811,0,3.8-2.176,3.925-2.389h.256v.554c0,.043-1.237,2.261-1.237,2.3a11.659,11.659,0,0,1-9.513,4.394c-7.167.042-12.243-5.12-12.8-13.182-.555-8.02,5.077-14.589,11.732-15.016.981-.043,2.133,0,2.3,0,0,0,.9-.427.981-.512Z" transform="translate(-354 -1423)"/>
</svg>
